<?xml version="1.0" encoding="UTF-8"?>
<svg id="Capa_2" data-name="Capa 2" xmlns="http://www.w3.org/2000/svg" viewBox="0 0 753.67 490.88">
  <defs>
    <style>
      .cls-1 {
        fill: #f9322c;
      }
    </style>
  </defs>
  <g>
    <path class="cls-1" d="M610.95,47.62v430.54h120.62V47.62h-120.62ZM671.26,112.65c-9.28,0-16.81-7.54-16.81-16.81s7.54-16.81,16.81-16.81,16.81,7.54,16.81,16.81-7.54,16.81-16.81,16.81Z"/>
    <polygon class="cls-1" points="570.99 194.71 570.99 478.16 450.37 478.16 450.37 315.33 403.62 315.33 403.62 478.16 283 478.16 283 194.71 570.99 194.71"/>
  </g>
  <g>
    <path class="cls-1" d="M196.63,173.48c-9.57,0-17.55-1.66-23.94-4.99-6.39-3.33-11.2-7.71-14.41-13.15-3.22-5.43-4.82-11.33-4.82-17.68,0-7.04,1.85-12.96,5.57-17.74,3.71-4.78,8.97-8.38,15.79-10.79,6.81-2.41,14.85-3.62,24.11-3.62,6.05,0,11.77.46,17.17,1.38,5.4.92,10.77,2.14,16.13,3.67v15.85c-4.21-1.38-8.8-2.45-13.78-3.21-4.98-.76-9.65-1.15-14.01-1.15-6.43,0-11.71,1.19-15.85,3.56-4.13,2.37-6.2,6.39-6.2,12.06,0,4.13,1.68,7.69,5.05,10.68,3.37,2.99,8.73,4.48,16.08,4.48,5.59,0,10.33-1.22,14.24-3.67,3.9-2.45,6.87-5.51,8.9-9.19,2.03-3.67,3.04-7.35,3.04-11.02h6.43c0,8.04-1.49,15.44-4.48,22.22-2.99,6.78-7.41,12.19-13.26,16.25s-13.11,6.09-21.76,6.09ZM233.15,170.26l-3.44-27.1v-44.78c0-7.81-1.59-13.59-4.77-17.34-3.18-3.75-8.55-5.63-16.13-5.63-4.36,0-8.15.65-11.37,1.95-3.22,1.3-5.68,3.16-7.41,5.57s-2.58,5.34-2.58,8.78h-29.62c0-8.42,2.03-15.29,6.09-20.61,4.06-5.32,9.89-9.22,17.51-11.71,7.62-2.49,16.74-3.73,27.39-3.73,9.65,0,18.07,1.55,25.26,4.65,7.19,3.1,12.78,7.87,16.76,14.3,3.98,6.43,5.97,14.66,5.97,24.69v70.96h-23.65Z"/>
    <path class="cls-1" d="M296.53,170.26V12.72h27.1v157.54h-27.1Z"/>
  </g>
  <g>
    <path class="cls-1" d="M22.1,370.77v-165.81h22.28l4.82,27.56v138.25h-27.1ZM77.91,319.56c-8.19,0-15.16-1.76-20.9-5.28-5.74-3.52-10.12-8.86-13.15-16.02-3.03-7.16-4.54-16.13-4.54-26.93h9.87c0,4.98,1.15,9.23,3.44,12.75,2.3,3.52,5.34,6.22,9.13,8.09,3.79,1.88,7.87,2.81,12.23,2.81s8.97-1.24,13.38-3.73c4.4-2.49,8.06-6.28,10.97-11.37,2.91-5.09,4.36-11.54,4.36-19.35,0-7.12-1.23-13.26-3.67-18.43-2.45-5.17-5.8-9.13-10.05-11.88-4.25-2.76-9.09-4.13-14.53-4.13-4.59,0-8.8,1.03-12.63,3.1-3.83,2.07-6.89,5.07-9.19,9.01-2.3,3.94-3.44,8.71-3.44,14.3h-9.87c0-11.71,1.8-21.3,5.4-28.76,3.6-7.46,8.42-12.99,14.47-16.59,6.05-3.6,12.67-5.4,19.86-5.4,8.8,0,17.09,2.34,24.86,7,7.77,4.67,14.07,11.39,18.89,20.15,4.82,8.77,7.23,19.31,7.23,31.63s-2.45,23-7.35,31.81c-4.9,8.8-11.31,15.54-19.23,20.21-7.92,4.67-16.44,7-25.55,7Z"/>
    <path class="cls-1" d="M196.63,319.56c-9.57,0-17.55-1.66-23.94-4.99-6.39-3.33-11.2-7.71-14.41-13.15-3.22-5.43-4.82-11.33-4.82-17.68,0-7.04,1.85-12.96,5.57-17.74,3.71-4.78,8.97-8.38,15.79-10.79,6.81-2.41,14.85-3.62,24.11-3.62,6.05,0,11.77.46,17.17,1.38,5.4.92,10.77,2.14,16.13,3.67v15.85c-4.21-1.38-8.8-2.45-13.78-3.21-4.98-.76-9.65-1.15-14.01-1.15-6.43,0-11.71,1.19-15.85,3.56-4.13,2.37-6.2,6.39-6.2,12.06,0,4.13,1.68,7.69,5.05,10.68,3.37,2.99,8.73,4.48,16.08,4.48,5.59,0,10.33-1.22,14.24-3.67,3.9-2.45,6.87-5.51,8.9-9.19,2.03-3.67,3.04-7.35,3.04-11.02h6.43c0,8.04-1.49,15.44-4.48,22.22-2.99,6.78-7.41,12.19-13.26,16.25-5.86,4.06-13.11,6.09-21.76,6.09ZM233.15,316.34l-3.44-27.1v-44.78c0-7.81-1.59-13.59-4.77-17.34-3.18-3.75-8.55-5.63-16.13-5.63-4.36,0-8.15.65-11.37,1.95-3.22,1.3-5.68,3.16-7.41,5.57-1.72,2.41-2.58,5.34-2.58,8.78h-29.62c0-8.42,2.03-15.29,6.09-20.61,4.06-5.32,9.89-9.22,17.51-11.71,7.62-2.49,16.74-3.73,27.39-3.73,9.65,0,18.07,1.55,25.26,4.65,7.19,3.1,12.78,7.87,16.76,14.3,3.98,6.43,5.97,14.66,5.97,24.69v70.96h-23.65Z"/>
  </g>
  <g>
    <path class="cls-1" d="M82.84,478.16c-9.34,0-18.01-2.43-26.01-7.29-8-4.86-14.47-11.71-19.41-20.55-4.94-8.84-7.41-19.23-7.41-31.17,0-12.63,2.47-23.33,7.41-32.09,4.94-8.76,11.41-15.4,19.41-19.92,8-4.52,16.67-6.77,26.01-6.77,7.27,0,13.68,1.17,19.23,3.5,5.55,2.34,10.28,5.47,14.18,9.42,3.9,3.94,6.96,8.32,9.19,13.15,2.22,4.82,3.63,9.69,4.25,14.58l-27.33.69c-1.23-4.9-3.5-8.96-6.83-12.17-3.33-3.21-7.64-4.82-12.92-4.82-4.36,0-8.46,1.21-12.29,3.62-3.83,2.41-6.95,6.14-9.36,11.2-2.41,5.05-3.62,11.6-3.62,19.64s1.13,14.03,3.39,19.12c2.26,5.09,5.3,8.92,9.13,11.48,3.83,2.57,8.08,3.85,12.75,3.85,6.89,0,11.9-1.66,15.04-4.99,3.14-3.33,4.71-7.79,4.71-13.38h27.33c0,7.89-1.8,15.08-5.4,21.59-3.6,6.51-8.88,11.69-15.85,15.56-6.97,3.86-15.5,5.8-25.61,5.8Z"/>
    <path class="cls-1" d="M196.63,478.16c-9.57,0-17.55-1.66-23.94-4.99-6.39-3.33-11.2-7.71-14.41-13.15-3.22-5.43-4.82-11.33-4.82-17.68,0-7.04,1.85-12.96,5.57-17.74,3.71-4.78,8.97-8.38,15.79-10.79,6.81-2.41,14.85-3.62,24.11-3.62,6.05,0,11.77.46,17.17,1.38,5.4.92,10.77,2.14,16.13,3.67v15.85c-4.21-1.38-8.8-2.45-13.78-3.21-4.98-.76-9.65-1.15-14.01-1.15-6.43,0-11.71,1.19-15.85,3.56-4.13,2.37-6.2,6.39-6.2,12.06,0,4.13,1.68,7.69,5.05,10.68,3.37,2.99,8.73,4.48,16.08,4.48,5.59,0,10.33-1.22,14.24-3.67,3.9-2.45,6.87-5.51,8.9-9.19,2.03-3.67,3.04-7.35,3.04-11.02h6.43c0,8.04-1.49,15.44-4.48,22.22-2.99,6.78-7.41,12.19-13.26,16.25-5.86,4.06-13.11,6.09-21.76,6.09ZM233.15,474.94l-3.44-27.1v-44.78c0-7.81-1.59-13.59-4.77-17.34-3.18-3.75-8.55-5.63-16.13-5.63-4.36,0-8.15.65-11.37,1.95-3.22,1.3-5.68,3.16-7.41,5.57s-2.58,5.34-2.58,8.78h-29.62c0-8.42,2.03-15.29,6.09-20.61,4.06-5.32,9.89-9.22,17.51-11.71,7.62-2.49,16.74-3.73,27.39-3.73,9.65,0,18.07,1.55,25.26,4.65,7.19,3.1,12.78,7.87,16.76,14.3,3.98,6.43,5.97,14.66,5.97,24.69v70.96h-23.65Z"/>
  </g>
</svg>